<?xml version="1.0" encoding="UTF-8"?><svg id="Warstwa_2" xmlns="http://www.w3.org/2000/svg" viewBox="0 0 205.03 205.03"><defs><style>.cls-1{fill:#1d1d1b;}</style></defs><path class="cls-1" d="M102.93,30.03c-36.12,0-56.1,32.48-56.1,54.94s13.86,34.57,14.45,35.06c.84.7,1.93,1.02,3.01.89,1.08-.12,2.07-.69,2.73-1.56l10.95-14.43c1.33-1.76.99-4.27-.77-5.6-1.76-1.33-4.27-.99-5.6.77l-8.09,10.67c-.9-1.12-1.92-2.53-2.93-4.22-3.81-6.39-5.74-13.65-5.74-21.57,0-19.18,17.13-46.94,48.1-46.94,17.52,0,28.73,8.77,35.05,16.13,7.53,8.77,12.21,20.57,12.21,30.81,0,19.46-17.24,40.24-17.41,40.44-.04.05-.08.09-.12.14l-29.68,38.8-18.5-25,11.1-15.4,3.15,4.99c.76,1.21,2.06,1.87,3.39,1.87.73,0,1.47-.2,2.13-.62,1.87-1.18,2.43-3.65,1.25-5.52l-4.87-7.71,9.72-13.48,9.64,15.27c.76,1.21,2.06,1.87,3.39,1.87.73,0,1.47-.2,2.13-.62,1.87-1.18,2.43-3.65,1.25-5.52l-11.36-18,7.31-10.14c1.29-1.79.89-4.29-.91-5.58-1.79-1.29-4.29-.89-5.58.91l-7.33,10.16-20.74-4.9c-2.16-.51-4.3.83-4.81,2.97-.51,2.15.82,4.3,2.97,4.81l17.52,4.14-9.7,13.46-8.57-2.02c-2.16-.51-4.31.82-4.81,2.97-.51,2.15.82,4.3,2.97,4.81l5.35,1.26-12.77,17.72c-1.02,1.41-1.01,3.32.03,4.72l23.4,31.62c.75,1.01,1.93,1.61,3.18,1.62h.03c1.25,0,2.42-.58,3.18-1.57l32.86-42.95c1.41-1.7,19.23-23.54,19.23-45.52s-19.21-54.94-55.26-54.94Z"/></svg>